inDegrees=no
num_controls=7
num_derivatives=13
num_iterations=72
num_multipliers=7
num_parameters=0
num_slacks=7
num_states=26
objective=0.333910
objective_accelerations=0.037201
objective_balance=0.001337
objective_effort=0.027286
objective_height=0.266611
objective_ligament=0.001475
solver_duration=738.266582
status=Solve_Succeeded
success=true
DataType=double
version=3
OpenSimVersion=4.5
endheader
time	/jointset/ground_pelvis/pelvis_tilt/value	/jointset/ground_pelvis/pelvis_tx/value	/jointset/ground_pelvis/pelvis_ty/value	/jointset/hip_r/hip_flexion_r/value	/jointset/hip_r/hip_adduction_r/value	/jointset/hip_r/hip_rotation_r/value	/jointset/back/lumbar_extension/value	/jointset/patellofemoral_r/patellar_flexion_r/value	/jointset/knee_r/knee_flexion_r/value	/jointset/knee_r/knee_adduction_r/value	/jointset/knee_r/knee_rotation_r/value	/jointset/ankle_r/ankle_angle_r/value	/jointset/subtalar_r/subtalar_angle_r/value	/jointset/ground_pelvis/pelvis_tilt/speed	/jointset/ground_pelvis/pelvis_tx/speed	/jointset/ground_pelvis/pelvis_ty/speed	/jointset/hip_r/hip_flexion_r/speed	/jointset/hip_r/hip_adduction_r/speed	/jointset/hip_r/hip_rotation_r/speed	/jointset/back/lumbar_extension/speed	/jointset/patellofemoral_r/patellar_flexion_r/speed	/jointset/knee_r/knee_flexion_r/speed	/jointset/knee_r/knee_adduction_r/speed	/jointset/knee_r/knee_rotation_r/speed	/jointset/ankle_r/ankle_angle_r/speed	/jointset/subtalar_r/subtalar_angle_r/speed	/forceset/tau_hip_flexion_r	/forceset/tau_hip_adduction_r	/forceset/tau_hip_rotation_r	/forceset/tau_knee_flexion_r	/forceset/tau_ankle_angle_r	/forceset/tau_subtalar_angle_r	/forceset/tau_lumbar_extension	lambda_cid13_p0	lambda_cid14_p0	lambda_cid14_p1	lambda_cid14_p2	lambda_cid14_p3	lambda_cid14_p4	lambda_cid14_p5	/jointset/ground_pelvis/pelvis_tilt/accel	/jointset/ground_pelvis/pelvis_tx/accel	/jointset/ground_pelvis/pelvis_ty/accel	/jointset/hip_r/hip_flexion_r/accel	/jointset/hip_r/hip_adduction_r/accel	/jointset/hip_r/hip_rotation_r/accel	/jointset/back/lumbar_extension/accel	/jointset/patellofemoral_r/patellar_flexion_r/accel	/jointset/knee_r/knee_flexion_r/accel	/jointset/knee_r/knee_adduction_r/accel	/jointset/knee_r/knee_rotation_r/accel	/jointset/ankle_r/ankle_angle_r/accel	/jointset/subtalar_r/subtalar_angle_r/accel	gamma_cid13_p0	gamma_cid14_p0	gamma_cid14_p1	gamma_cid14_p2	gamma_cid14_p3	gamma_cid14_p4	gamma_cid14_p5
0.5	-0.1716818017289299	0.02887696508279817	0.8041446741698529	0.9233239455727504	-0.2241412251635432	-0.1223172863182086	-0.6472703642326193	0.9555713576922992	0.9555713576923766	-0.04608146256437545	0.1745074421492427	0.2955112676834508	0.1370386629165439	-0.4385436348399736	-0.2067305242932695	-0.510959518510952	1.957357168470361	-0.007473667950582353	0.1723665794839673	-0.7376349050032197	1.936690338939456	1.936690338939521	-0.4722966645562605	0.0001254536688086962	0.5314909368511697	0.1980580281465749	-0.2143530754857371	0.028554365365128	0.0151145312919553	-0.2670650893105982	-0.01643397199489059	-0.007011696400507062	0.2490493643852797	-8.384891584208287	-48.11388926418947	-10.85540963716463	1.451060229380438	-2.897004562371767	-639.5815274762413	48.22776062056508	0.3655015056412367	0.5945929325804012	-0.4370064756941767	-1.308490699167758	-0.2567359496982135	-0.653026588982763	1.827961635637178	-1.364001751558474	-1.36400175155845	0.4475799393752319	-0.01329939344508417	-0.5900663050546313	-0.4160136277036647	-1.467744830282443e-07	-1.544327566314432e-07	5.516169879042883e-07	-1.615805756647138e-06	4.076321966614145e-08	-2.898096172652339e-07	4.21222212843016e-07
0.51	-0.1760479614136173	0.02683959244756999	0.7990144454909656	0.9428288974796244	-0.2242295659382918	-0.1206250098621592	-0.6545547776261419	0.9748672959492234	0.974867295949242	-0.05077907229961406	0.1745087409581592	0.3007955160680018	0.1389965990456706	-0.4346175468699593	-0.2007261124907232	-0.5149692142240966	1.943367323053654	-0.01018252491467588	0.1661030419362386	-0.7191573404797361	1.92223128703551	1.92223128703553	-0.467187079763823	0.000134909877593837	0.5252785077317744	0.1934956433404194	-0.2214029284810075	0.02992258468204107	0.01509976996619561	-0.2714882456751122	-0.01779650066355313	-0.006595634736785599	0.2554434714054707	-7.439353163718064	-48.88448500414167	-11.00171240178962	1.693778214382076	-2.824916214290392	-644.8149578399921	48.24199211736268	0.4167607812763898	0.606057130493235	-0.3654580372055495	-1.484135667294171	-0.2763693866804152	-0.6111279462546416	1.871218843964979	-1.526730929828787	-1.526730929835517	0.5484510085126115	0.007854658612520347	-0.6488902920568317	-0.4814909581008889	-1.508492894514374e-07	-1.661628734304004e-07	4.640414526753123e-07	-1.725966179026249e-06	5.494151234510136e-08	-2.837683767140021e-07	3.25159421176465e-07
0.52	-0.1803727405508866	0.02486280229564757	0.7938476184713307	0.9621859700914552	-0.2243446770460648	-0.1189949909033048	-0.6616517023777776	0.9940106688831027	0.9940106688830675	-0.05542442553506437	0.1745100916352806	0.3060152283460241	0.1409078833165298	-0.430267525356148	-0.1946140276321186	-0.5182791866604776	1.927781309462067	-0.01282773455538772	0.1599150800450396	-0.7001371766258095	1.90617727433092	1.906177274330896	-0.4618453645980008	0.0001358273092680105	0.5185837155453847	0.1887276564930873	-0.2284527814762837	0.0312908039989503	0.01508500864046651	-0.2759114020396234	-0.01915902933221615	-0.006179573073070377	0.2618375784256565	-6.553222604478165	-49.65175538201244	-11.14267448894516	1.930209075722153	-2.787842039869941	-650.0071039633273	48.31706246637447	0.4502882144006677	0.6161275437920433	-0.2970618203414546	-1.627724334143774	-0.2440064850218625	-0.6379114576768201	1.936481501725789	-1.682993911687051	-1.682993911687035	0.4940060140521438	-0.01500714886729993	-0.686538918453525	-0.4571340359389884	-1.5467217826708e-07	-1.851965825396216e-07	2.858810288442856e-07	-1.91177458702018e-06	8.222805339829093e-08	-2.774974058608745e-07	1.633053318552431e-07
0.53	-0.1846519197782299	0.02294756545025858	0.7886512128759325	0.9813793795254354	-0.2244859746913828	-0.1174255221133127	-0.6685558598932417	1.012985805774462	1.012985805774587	-0.06001433758991549	0.1745110833369601	0.3111655870446657	0.1427703151852648	-0.4254960641741928	-0.1884256242052826	-0.5208820019278841	1.910644725467644	-0.01541880560512665	0.154014559092504	-0.6806213444978287	1.888598970888861	1.888598970888775	-0.4560791818755139	5.961481254042236e-05	0.5114086110256102	0.1837242669561948	-0.2355258758525319	0.03263545121672919	0.01511014661857457	-0.2802093383638189	-0.02098497362510885	-0.005844767541621707	0.2681681385407569	-5.727146213018231	-50.58687853663191	-11.34708282039468	2.175346943337948	-2.516539699955168	-655.2850722941499	48.29269927592117	0.5013925739940747	0.6213736402143452	-0.2239566469689757	-1.79503039945774	-0.2649863167572207	-0.5610189389889306	1.970081363740771	-1.832887182236821	-1.832887182246041	0.6266388254508052	-0.004752530770697666	-0.7449228368559505	-0.5273169925612733	-1.427949619620469e-07	-1.596217087677801e-07	3.560096501690619e-07	-1.67805253829747e-06	5.638995067027924e-08	-2.441854807828599e-07	2.000260099893598e-07
